<svg data-v-423bf9ae="" xmlns="http://www.w3.org/2000/svg" viewBox="0 0 646 90" class="iconLeft"><!----><!----><!----><g data-v-423bf9ae="" id="cab40166-4ee7-462b-8ab6-d73769b93768" fill="#03487A" transform="matrix(5.725191089769513,0,0,5.725191089769513,106.04961119364742,-5.782443357385141)"><path d="M7.63 5.94L7.63 5.94Q7.63 6.05 7.56 6.12L7.56 6.12L7.56 6.12Q7.49 6.19 7.38 6.19L7.38 6.19L3.11 6.19L3.11 6.19Q3.01 6.19 3.01 6.29L3.01 6.29L3.01 7.95L3.01 7.95Q3.01 8.05 3.11 8.05L3.11 8.05L5.81 8.05L5.81 8.05Q5.92 8.05 5.99 8.12L5.99 8.12L5.99 8.12Q6.06 8.19 6.06 8.30L6.06 8.30L6.06 9.77L6.06 9.77Q6.06 9.88 5.99 9.95L5.99 9.95L5.99 9.95Q5.92 10.02 5.81 10.02L5.81 10.02L3.11 10.02L3.11 10.02Q3.01 10.02 3.01 10.12L3.01 10.12L3.01 13.75L3.01 13.75Q3.01 13.86 2.94 13.93L2.94 13.93L2.94 13.93Q2.87 14 2.76 14L2.76 14L0.94 14L0.94 14Q0.83 14 0.76 13.93L0.76 13.93L0.76 13.93Q0.69 13.86 0.69 13.75L0.69 13.75L0.69 4.45L0.69 4.45Q0.69 4.34 0.76 4.27L0.76 4.27L0.76 4.27Q0.83 4.20 0.94 4.20L0.94 4.20L7.38 4.20L7.38 4.20Q7.49 4.20 7.56 4.27L7.56 4.27L7.56 4.27Q7.63 4.34 7.63 4.45L7.63 4.45L7.63 5.94ZM11.70 14.11L11.70 14.11Q10.44 14.11 9.57 13.44L9.57 13.44L9.57 13.44Q8.69 12.77 8.39 11.62L8.39 11.62L8.39 11.62Q8.22 11.05 8.22 10.36L8.22 10.36L8.22 10.36Q8.22 9.66 8.40 9.00L8.40 9.00L8.40 9.00Q8.72 7.90 9.60 7.27L9.60 7.27L9.60 7.27Q10.47 6.65 11.72 6.65L11.72 6.65L11.72 6.65Q12.95 6.65 13.80 7.27L13.80 7.27L13.80 7.27Q14.66 7.90 14.99 8.99L14.99 8.99L14.99 8.99Q15.19 9.62 15.19 10.33L15.19 10.33L15.19 10.33Q15.19 10.98 15.04 11.56L15.04 11.56L15.04 11.56Q14.74 12.74 13.86 13.43L13.86 13.43L13.86 13.43Q12.98 14.11 11.70 14.11L11.70 14.11ZM11.70 12.12L11.70 12.12Q12.11 12.12 12.38 11.87L12.38 11.87L12.38 11.87Q12.66 11.61 12.77 11.16L12.77 11.16L12.77 11.16Q12.85 10.79 12.85 10.36L12.85 10.36L12.85 10.36Q12.85 9.94 12.75 9.55L12.75 9.55L12.75 9.55Q12.64 9.11 12.38 8.88L12.38 8.88L12.38 8.88Q12.11 8.64 11.70 8.64L11.70 8.64L11.70 8.64Q11.28 8.64 11.03 8.88L11.03 8.88L11.03 8.88Q10.77 9.11 10.65 9.55L10.65 9.55L10.65 9.55Q10.56 9.86 10.56 10.36L10.56 10.36L10.56 10.36Q10.56 10.79 10.64 11.16L10.64 11.16L10.64 11.16Q10.77 11.61 11.03 11.87L11.03 11.87L11.03 11.87Q11.30 12.12 11.70 12.12L11.70 12.12ZM19.52 14.11L19.52 14.11Q18.26 14.11 17.38 13.44L17.38 13.44L17.38 13.44Q16.51 12.77 16.20 11.62L16.20 11.62L16.20 11.62Q16.03 11.05 16.03 10.36L16.03 10.36L16.03 10.36Q16.03 9.66 16.21 9.00L16.21 9.00L16.21 9.00Q16.53 7.90 17.41 7.27L17.41 7.27L17.41 7.27Q18.28 6.65 19.53 6.65L19.53 6.65L19.53 6.65Q20.76 6.65 21.62 7.27L21.62 7.27L21.62 7.27Q22.47 7.90 22.81 8.99L22.81 8.99L22.81 8.99Q23.00 9.62 23.00 10.33L23.00 10.33L23.00 10.33Q23.00 10.98 22.85 11.56L22.85 11.56L22.85 11.56Q22.55 12.74 21.67 13.43L21.67 13.43L21.67 13.43Q20.79 14.11 19.52 14.11L19.52 14.11ZM19.52 12.12L19.52 12.12Q19.92 12.12 20.20 11.87L20.20 11.87L20.20 11.87Q20.47 11.61 20.58 11.16L20.58 11.16L20.58 11.16Q20.66 10.79 20.66 10.36L20.66 10.36L20.66 10.36Q20.66 9.94 20.57 9.55L20.57 9.55L20.57 9.55Q20.45 9.11 20.19 8.88L20.19 8.88L20.19 8.88Q19.92 8.64 19.52 8.64L19.52 8.64L19.52 8.64Q19.10 8.64 18.84 8.88L18.84 8.88L18.84 8.88Q18.58 9.11 18.47 9.55L18.47 9.55L18.47 9.55Q18.37 9.86 18.37 10.36L18.37 10.36L18.37 10.36Q18.37 10.79 18.45 11.16L18.45 11.16L18.45 11.16Q18.58 11.61 18.84 11.87L18.84 11.87L18.84 11.87Q19.11 12.12 19.52 12.12L19.52 12.12ZM28.48 8.37L28.48 8.37Q28.48 8.48 28.41 8.55L28.41 8.55L28.41 8.55Q28.34 8.62 28.22 8.62L28.22 8.62L27.06 8.62L27.06 8.62Q26.96 8.62 26.96 8.72L26.96 8.72L26.96 11.17L26.96 11.17Q26.96 11.97 27.61 11.97L27.61 11.97L28.04 11.97L28.04 11.97Q28.15 11.97 28.22 12.04L28.22 12.04L28.22 12.04Q28.29 12.11 28.29 12.22L28.29 12.22L28.29 13.69L28.29 13.69Q28.29 13.92 28.06 13.94L28.06 13.94L28.06 13.94Q27.41 13.97 27.15 13.97L27.15 13.97L27.15 13.97Q25.93 13.97 25.34 13.58L25.34 13.58L25.34 13.58Q24.75 13.19 24.74 12.12L24.74 12.12L24.74 8.72L24.74 8.72Q24.74 8.62 24.64 8.62L24.64 8.62L23.95 8.62L23.95 8.62Q23.84 8.62 23.77 8.55L23.77 8.55L23.77 8.55Q23.70 8.48 23.70 8.37L23.70 8.37L23.70 7.01L23.70 7.01Q23.70 6.90 23.77 6.83L23.77 6.83L23.77 6.83Q23.84 6.76 23.95 6.76L23.95 6.76L24.64 6.76L24.64 6.76Q24.74 6.76 24.74 6.66L24.74 6.66L24.74 5.08L24.74 5.08Q24.74 4.97 24.81 4.90L24.81 4.90L24.81 4.90Q24.88 4.83 24.99 4.83L24.99 4.83L26.71 4.83L26.71 4.83Q26.82 4.83 26.89 4.90L26.89 4.90L26.89 4.90Q26.96 4.97 26.96 5.08L26.96 5.08L26.96 6.66L26.96 6.66Q26.96 6.76 27.06 6.76L27.06 6.76L28.22 6.76L28.22 6.76Q28.34 6.76 28.41 6.83L28.41 6.83L28.41 6.83Q28.48 6.90 28.48 7.01L28.48 7.01L28.48 8.37ZM36.13 8.58L36.13 8.58Q36.43 9.35 36.43 10.35L36.43 10.35L36.43 10.35Q36.43 11.27 36.20 11.96L36.20 11.96L36.20 11.96Q35.92 12.91 35.15 13.51L35.15 13.51L35.15 13.51Q34.38 14.11 33.47 14.11L33.47 14.11L33.47 14.11Q32.41 14.11 31.88 13.37L31.88 13.37L31.88 13.37Q31.84 13.31 31.80 13.33L31.80 13.33L31.80 13.33Q31.77 13.34 31.77 13.41L31.77 13.41L31.77 13.75L31.77 13.75Q31.77 13.86 31.70 13.93L31.70 13.93L31.70 13.93Q31.63 14 31.51 14L31.51 14L29.69 14L29.69 14Q29.58 14 29.51 13.93L29.51 13.93L29.51 13.93Q29.44 13.86 29.44 13.75L29.44 13.75L29.44 4.45L29.44 4.45Q29.44 4.34 29.51 4.27L29.51 4.27L29.51 4.27Q29.58 4.20 29.69 4.20L29.69 4.20L31.51 4.20L31.51 4.20Q31.63 4.20 31.70 4.27L31.70 4.27L31.70 4.27Q31.77 4.34 31.77 4.45L31.77 4.45L31.77 7.24L31.77 7.24Q31.77 7.31 31.80 7.32L31.80 7.32L31.80 7.32Q31.84 7.34 31.88 7.28L31.88 7.28L31.88 7.28Q32.41 6.64 33.47 6.64L33.47 6.64L33.47 6.64Q34.37 6.64 35.09 7.17L35.09 7.17L35.09 7.17Q35.81 7.71 36.13 8.58L36.13 8.58ZM33.70 11.55L33.70 11.55Q33.94 11.10 33.94 10.39L33.94 10.39L33.94 10.39Q33.94 9.63 33.68 9.17L33.68 9.17L33.68 9.17Q33.39 8.68 32.84 8.68L32.84 8.68L32.84 8.68Q32.33 8.68 32.03 9.16L32.03 9.16L32.03 9.16Q31.78 9.62 31.78 10.39L31.78 10.39L31.78 10.39Q31.78 11.09 32.02 11.54L32.02 11.54L32.02 11.54Q32.31 12.07 32.84 12.07L32.84 12.07L32.84 12.07Q33.40 12.07 33.70 11.55L33.70 11.55ZM40.32 6.65L40.32 6.65Q41.24 6.65 42 6.96L42 6.96L42 6.96Q42.76 7.28 43.19 7.83L43.19 7.83L43.19 7.83Q43.62 8.39 43.62 9.06L43.62 9.06L43.62 13.75L43.62 13.75Q43.62 13.86 43.55 13.93L43.55 13.93L43.55 13.93Q43.48 14 43.37 14L43.37 14L41.55 14L41.55 14Q41.44 14 41.37 13.93L41.37 13.93L41.37 13.93Q41.30 13.86 41.30 13.75L41.30 13.75L41.30 13.47L41.30 13.47Q41.30 13.40 41.27 13.38L41.27 13.38L41.27 13.38Q41.23 13.37 41.19 13.43L41.19 13.43L41.19 13.43Q40.63 14.11 39.38 14.11L39.38 14.11L39.38 14.11Q38.28 14.11 37.62 13.59L37.62 13.59L37.62 13.59Q36.96 13.06 36.96 12.04L36.96 12.04L36.96 12.04Q36.96 10.96 37.71 10.37L37.71 10.37L37.71 10.37Q38.46 9.79 39.87 9.79L39.87 9.79L41.20 9.79L41.20 9.79Q41.30 9.79 41.30 9.69L41.30 9.69L41.30 9.45L41.30 9.45Q41.30 9.07 41.05 8.86L41.05 8.86L41.05 8.86Q40.81 8.64 40.36 8.64L40.36 8.64L40.36 8.64Q40.04 8.64 39.81 8.74L39.81 8.74L39.81 8.74Q39.58 8.85 39.48 9.03L39.48 9.03L39.48 9.03Q39.41 9.13 39.35 9.18L39.35 9.18L39.35 9.18Q39.28 9.23 39.19 9.21L39.19 9.21L37.31 8.97L37.31 8.97Q37.06 8.95 37.09 8.78L37.09 8.78L37.09 8.78Q37.16 8.18 37.59 7.69L37.59 7.69L37.59 7.69Q38.02 7.21 38.73 6.93L38.73 6.93L38.73 6.93Q39.44 6.65 40.32 6.65L40.32 6.65ZM40.08 12.45L40.08 12.45Q40.61 12.45 40.96 12.17L40.96 12.17L40.96 12.17Q41.30 11.90 41.30 11.45L41.30 11.45L41.30 11.14L41.30 11.14Q41.30 11.05 41.20 11.05L41.20 11.05L40.39 11.05L40.39 11.05Q39.86 11.05 39.57 11.23L39.57 11.23L39.57 11.23Q39.28 11.41 39.28 11.77L39.28 11.77L39.28 11.77Q39.28 12.08 39.49 12.26L39.49 12.26L39.49 12.26Q39.70 12.45 40.08 12.45L40.08 12.45ZM45.05 14L45.05 14Q44.94 14 44.87 13.93L44.87 13.93L44.87 13.93Q44.80 13.86 44.80 13.75L44.80 13.75L44.80 4.45L44.80 4.45Q44.80 4.34 44.87 4.27L44.87 4.27L44.87 4.27Q44.94 4.20 45.05 4.20L45.05 4.20L46.87 4.20L46.87 4.20Q46.98 4.20 47.05 4.27L47.05 4.27L47.05 4.27Q47.12 4.34 47.12 4.45L47.12 4.45L47.12 13.75L47.12 13.75Q47.12 13.86 47.05 13.93L47.05 13.93L47.05 13.93Q46.98 14 46.87 14L46.87 14L45.05 14ZM48.62 14L48.62 14Q48.51 14 48.44 13.93L48.44 13.93L48.44 13.93Q48.37 13.86 48.37 13.75L48.37 13.75L48.37 4.45L48.37 4.45Q48.37 4.34 48.44 4.27L48.44 4.27L48.44 4.27Q48.51 4.20 48.62 4.20L48.62 4.20L50.44 4.20L50.44 4.20Q50.55 4.20 50.62 4.27L50.62 4.27L50.62 4.27Q50.69 4.34 50.69 4.45L50.69 4.45L50.69 13.75L50.69 13.75Q50.69 13.86 50.62 13.93L50.62 13.93L50.62 13.93Q50.55 14 50.44 14L50.44 14L48.62 14ZM61.75 5.94L61.75 5.94Q61.75 6.05 61.68 6.12L61.68 6.12L61.68 6.12Q61.61 6.19 61.50 6.19L61.50 6.19L57.23 6.19L57.23 6.19Q57.13 6.19 57.13 6.29L57.13 6.29L57.13 7.95L57.13 7.95Q57.13 8.05 57.23 8.05L57.23 8.05L59.93 8.05L59.93 8.05Q60.05 8.05 60.12 8.12L60.12 8.12L60.12 8.12Q60.19 8.19 60.19 8.30L60.19 8.30L60.19 9.77L60.19 9.77Q60.19 9.88 60.12 9.95L60.12 9.95L60.12 9.95Q60.05 10.02 59.93 10.02L59.93 10.02L57.23 10.02L57.23 10.02Q57.13 10.02 57.13 10.12L57.13 10.12L57.13 13.75L57.13 13.75Q57.13 13.86 57.06 13.93L57.06 13.93L57.06 13.93Q56.99 14 56.88 14L56.88 14L55.06 14L55.06 14Q54.95 14 54.88 13.93L54.88 13.93L54.88 13.93Q54.81 13.86 54.81 13.75L54.81 13.75L54.81 4.45L54.81 4.45Q54.81 4.34 54.88 4.27L54.88 4.27L54.88 4.27Q54.95 4.20 55.06 4.20L55.06 4.20L61.50 4.20L61.50 4.20Q61.61 4.20 61.68 4.27L61.68 4.27L61.68 4.27Q61.75 4.34 61.75 4.45L61.75 4.45L61.75 5.94ZM63.78 6.29L63.78 6.29Q63.17 6.29 62.79 5.91L62.79 5.91L62.79 5.91Q62.41 5.54 62.41 4.94L62.41 4.94L62.41 4.94Q62.41 4.35 62.79 3.99L62.79 3.99L62.79 3.99Q63.17 3.63 63.78 3.63L63.78 3.63L63.78 3.63Q64.40 3.63 64.78 3.99L64.78 3.99L64.78 3.99Q65.16 4.35 65.16 4.94L65.16 4.94L65.16 4.94Q65.16 5.54 64.78 5.91L64.78 5.91L64.78 5.91Q64.40 6.29 63.78 6.29L63.78 6.29ZM62.87 14L62.87 14Q62.76 14 62.69 13.93L62.69 13.93L62.69 13.93Q62.62 13.86 62.62 13.75L62.62 13.75L62.62 7.01L62.62 7.01Q62.62 6.90 62.69 6.83L62.69 6.83L62.69 6.83Q62.76 6.76 62.87 6.76L62.87 6.76L64.69 6.76L64.69 6.76Q64.81 6.76 64.88 6.83L64.88 6.83L64.88 6.83Q64.95 6.90 64.95 7.01L64.95 7.01L64.95 13.75L64.95 13.75Q64.95 13.86 64.88 13.93L64.88 13.93L64.88 13.93Q64.81 14 64.69 14L64.69 14L62.87 14ZM70.31 6.65L70.31 6.65Q71.40 6.65 72.09 7.34L72.09 7.34L72.09 7.34Q72.79 8.04 72.79 9.23L72.79 9.23L72.79 13.75L72.79 13.75Q72.79 13.86 72.72 13.93L72.72 13.93L72.72 13.93Q72.65 14 72.53 14L72.53 14L70.71 14L70.71 14Q70.60 14 70.53 13.93L70.53 13.93L70.53 13.93Q70.46 13.86 70.46 13.75L70.46 13.75L70.46 9.73L70.46 9.73Q70.46 9.24 70.20 8.94L70.20 8.94L70.20 8.94Q69.94 8.64 69.51 8.64L69.51 8.64L69.51 8.64Q69.08 8.64 68.81 8.94L68.81 8.94L68.81 8.94Q68.54 9.24 68.54 9.73L68.54 9.73L68.54 13.75L68.54 13.75Q68.54 13.86 68.47 13.93L68.47 13.93L68.47 13.93Q68.40 14 68.29 14L68.29 14L66.47 14L66.47 14Q66.36 14 66.29 13.93L66.29 13.93L66.29 13.93Q66.22 13.86 66.22 13.75L66.22 13.75L66.22 7.01L66.22 7.01Q66.22 6.90 66.29 6.83L66.29 6.83L66.29 6.83Q66.36 6.76 66.47 6.76L66.47 6.76L68.29 6.76L68.29 6.76Q68.40 6.76 68.47 6.83L68.47 6.83L68.47 6.83Q68.54 6.90 68.54 7.01L68.54 7.01L68.54 7.41L68.54 7.41Q68.54 7.48 68.58 7.49L68.58 7.49L68.58 7.49Q68.61 7.50 68.64 7.45L68.64 7.45L68.64 7.45Q69.22 6.65 70.31 6.65L70.31 6.65ZM78.26 4.45L78.26 4.45Q78.26 4.34 78.33 4.27L78.33 4.27L78.33 4.27Q78.40 4.20 78.51 4.20L78.51 4.20L80.33 4.20L80.33 4.20Q80.44 4.20 80.51 4.27L80.51 4.27L80.51 4.27Q80.58 4.34 80.58 4.45L80.58 4.45L80.58 13.75L80.58 13.75Q80.58 13.86 80.51 13.93L80.51 13.93L80.51 13.93Q80.44 14 80.33 14L80.33 14L78.51 14L78.51 14Q78.40 14 78.33 13.93L78.33 13.93L78.33 13.93Q78.26 13.86 78.26 13.75L78.26 13.75L78.26 13.41L78.26 13.41Q78.26 13.34 78.23 13.33L78.23 13.33L78.23 13.33Q78.19 13.31 78.15 13.37L78.15 13.37L78.15 13.37Q77.62 14.11 76.55 14.11L76.55 14.11L76.55 14.11Q75.64 14.11 74.87 13.51L74.87 13.51L74.87 13.51Q74.10 12.91 73.82 11.96L73.82 11.96L73.82 11.96Q73.60 11.27 73.60 10.35L73.60 10.35L73.60 10.35Q73.60 9.35 73.89 8.58L73.89 8.58L73.89 8.58Q74.21 7.71 74.94 7.17L74.94 7.17L74.94 7.17Q75.66 6.64 76.55 6.64L76.55 6.64L76.55 6.64Q77.62 6.64 78.15 7.28L78.15 7.28L78.15 7.28Q78.19 7.34 78.23 7.32L78.23 7.32L78.23 7.32Q78.26 7.31 78.26 7.24L78.26 7.24L78.26 4.45ZM78.01 11.54L78.01 11.54Q78.25 11.09 78.25 10.39L78.25 10.39L78.25 10.39Q78.25 9.62 77.99 9.16L77.99 9.16L77.99 9.16Q77.70 8.68 77.18 8.68L77.18 8.68L77.18 8.68Q76.64 8.68 76.34 9.17L76.34 9.17L76.34 9.17Q76.09 9.63 76.09 10.39L76.09 10.39L76.09 10.39Q76.09 11.10 76.33 11.55L76.33 11.55L76.33 11.55Q76.62 12.07 77.18 12.07L77.18 12.07L77.18 12.07Q77.71 12.07 78.01 11.54L78.01 11.54ZM85.43 12.14L85.43 12.14Q85.86 12.14 86.23 12.00L86.23 12.00L86.23 12.00Q86.60 11.87 86.86 11.65L86.86 11.65L86.86 11.65Q86.94 11.55 87.04 11.55L87.04 11.55L87.04 11.55Q87.12 11.55 87.21 11.65L87.21 11.65L88.07 12.68L88.07 12.68Q88.16 12.78 88.16 12.87L88.16 12.87L88.16 12.87Q88.16 12.96 88.07 13.05L88.07 13.05L88.07 13.05Q87.60 13.55 86.87 13.83L86.87 13.83L86.87 13.83Q86.14 14.11 85.32 14.11L85.32 14.11L85.32 14.11Q84.36 14.11 83.63 13.77L83.63 13.77L83.63 13.77Q82.89 13.43 82.42 12.81L82.42 12.81L82.42 12.81Q81.65 11.83 81.65 10.32L81.65 10.32L81.65 10.32Q81.65 9.65 81.80 9.06L81.80 9.06L81.80 9.06Q82.11 7.97 83.01 7.30L83.01 7.30L83.01 7.30Q83.90 6.64 85.11 6.64L85.11 6.64L85.11 6.64Q86.51 6.64 87.37 7.50L87.37 7.50L87.37 7.50Q88.23 8.37 88.49 9.93L88.49 9.93L88.49 9.93Q88.55 10.32 88.58 10.78L88.58 10.78L88.58 10.78Q88.58 11.03 88.33 11.03L88.33 11.03L84.10 11.03L84.10 11.03Q84.06 11.03 84.02 11.06L84.02 11.06L84.02 11.06Q83.99 11.09 84 11.14L84 11.14L84.08 11.42L84.08 11.42Q84.22 11.76 84.57 11.95L84.57 11.95L84.57 11.95Q84.92 12.14 85.43 12.14L85.43 12.14ZM85.06 8.64L85.06 8.64Q84.35 8.64 84.10 9.32L84.10 9.32L84.10 9.32Q84.04 9.46 84.03 9.53L84.03 9.53L84.03 9.56L84.03 9.56Q84.03 9.65 84.13 9.65L84.13 9.65L86.04 9.65L86.04 9.65Q86.10 9.65 86.12 9.61L86.12 9.61L86.12 9.61Q86.14 9.58 86.13 9.53L86.13 9.53L86.07 9.35L86.07 9.35Q85.96 9.02 85.71 8.83L85.71 8.83L85.71 8.83Q85.46 8.64 85.06 8.64L85.06 8.64ZM93.37 6.66L93.37 6.66Q93.81 6.66 94.09 6.82L94.09 6.82L94.09 6.82Q94.28 6.92 94.23 7.13L94.23 7.13L93.93 8.92L93.93 8.92Q93.91 9.10 93.74 9.10L93.74 9.10L93.74 9.10Q93.67 9.10 93.63 9.09L93.63 9.09L93.63 9.09Q93.46 9.04 93.21 9.04L93.21 9.04L93.21 9.04Q92.99 9.04 92.88 9.07L92.88 9.07L92.88 9.07Q92.44 9.13 92.14 9.41L92.14 9.41L92.14 9.41Q91.84 9.69 91.84 10.15L91.84 10.15L91.84 13.75L91.84 13.75Q91.84 13.86 91.77 13.93L91.77 13.93L91.77 13.93Q91.70 14 91.59 14L91.59 14L89.77 14L89.77 14Q89.66 14 89.59 13.93L89.59 13.93L89.59 13.93Q89.52 13.86 89.52 13.75L89.52 13.75L89.52 7.01L89.52 7.01Q89.52 6.90 89.59 6.83L89.59 6.83L89.59 6.83Q89.66 6.76 89.77 6.76L89.77 6.76L91.59 6.76L91.59 6.76Q91.70 6.76 91.77 6.83L91.77 6.83L91.77 6.83Q91.84 6.90 91.84 7.01L91.84 7.01L91.84 7.32L91.84 7.32Q91.84 7.39 91.88 7.41L91.88 7.41L91.88 7.41Q91.91 7.42 91.94 7.36L91.94 7.36L91.94 7.36Q92.50 6.66 93.37 6.66L93.37 6.66Z"></path></g><defs data-v-423bf9ae=""><linearGradient data-v-423bf9ae="" gradientTransform="rotate(25)" id="b273256a-b85b-4588-987c-9f07caf12e74" x1="0%" y1="0%" x2="100%" y2="0%"><stop data-v-423bf9ae="" offset="0%" style="stop-color: rgb(15, 40, 75); stop-opacity: 1;"></stop><stop data-v-423bf9ae="" offset="100%" style="stop-color: rgb(69, 174, 255); stop-opacity: 1;"></stop></linearGradient></defs><g data-v-423bf9ae="" id="4c92f702-7a87-4e51-a13b-116d26cc328f" transform="matrix(4.5,0,0,4.5,-9,-9)" stroke="none" fill="url(#b273256a-b85b-4588-987c-9f07caf12e74)"><path d="M12 4c4.4 0 8 3.6 8 8s-3.6 8-8 8-8-3.6-8-8 3.6-8 8-8m0-2C6.5 2 2 6.5 2 12s4.5 10 10 10 10-4.5 10-10S17.5 2 12 2z"></path><path d="M9.6 15.8L8 11.1l4-2.9 4 2.9-1.6 4.7zM13.9 2.4l1.2 2.1L12 5.8 8.9 4.5l1.2-2.1zM3.5 7.2l2.4-.4.2 3.3-2.2 2.5-1.6-1.8zM4.8 18.6l.3-2.4 3.3.8 1.7 2.9-2.2 1zM16.1 20.9l-2.2-1 1.7-2.9 3.3-.8.3 2.4zM21.7 10.8l-1.6 1.8-2.2-2.5.2-3.3 2.4.4z"></path></g><!----></svg>