<?xml version="1.0" standalone="no"?>
<!DOCTYPE svg PUBLIC "-//W3C//DTD SVG 20010904//EN"
 "http://www.w3.org/TR/2001/REC-SVG-20010904/DTD/svg10.dtd">
<svg version="1.0" xmlns="http://www.w3.org/2000/svg"
 width="512.000000pt" height="512.000000pt" viewBox="0 0 512.000000 512.000000"
 preserveAspectRatio="xMidYMid meet">

<g transform="translate(0.000000,512.000000) scale(0.100000,-0.100000)"
fill="#000000" stroke="none">
<path d="M2120 5114 c-171 -21 -220 -28 -320 -50 -240 -53 -503 -161 -717
-294 -137 -86 -163 -140 -98 -205 51 -52 70 -47 245 60 360 222 851 331 1278
284 141 -15 321 -53 447 -94 135 -44 379 -163 500 -243 250 -167 473 -396 625
-642 l49 -79 -72 -39 c-99 -54 -170 -121 -203 -189 -24 -48 -28 -68 -28 -150
-1 -94 -1 -95 32 -124 44 -40 93 -40 133 0 26 26 29 36 29 91 0 102 33 145
157 209 l43 21 16 -37 c74 -170 134 -416 155 -628 15 -156 1 -497 -22 -520 -3
-2 -37 9 -76 24 -382 156 -840 106 -1198 -131 -99 -65 -284 -249 -347 -344
-231 -348 -288 -762 -159 -1139 20 -60 41 -117 45 -127 5 -11 2 -18 -11 -22
-30 -9 -221 -26 -293 -26 l-68 0 -4 98 c-5 122 -21 159 -122 275 -42 49 -79
100 -82 114 -4 14 1 77 11 139 30 190 14 285 -59 362 -68 73 -140 86 -356 65
-141 -14 -226 -11 -261 7 -9 5 -55 56 -102 112 -134 162 -223 226 -328 235
-49 5 -66 1 -121 -24 -35 -17 -101 -61 -148 -98 -82 -64 -176 -119 -231 -135
-26 -8 -29 -5 -72 88 -147 314 -212 708 -177 1063 12 118 50 312 80 411 l21
67 47 -30 c65 -41 132 -59 221 -59 125 1 225 44 382 165 94 73 163 108 215
109 34 1 54 -8 110 -46 157 -107 167 -141 84 -267 -81 -124 -94 -166 -95 -301
0 -125 11 -172 68 -285 41 -83 136 -178 215 -217 114 -57 267 -51 400 15 92
45 183 135 224 223 30 63 33 77 32 164 0 52 -4 132 -8 176 l-9 82 72 70 c86
85 124 159 151 294 18 92 19 94 74 145 141 132 289 95 385 -95 38 -76 63 -160
96 -322 15 -74 36 -158 46 -186 37 -99 131 -174 200 -159 36 8 79 59 79 93 0
34 -33 88 -58 96 -27 9 -37 38 -76 221 -57 267 -121 410 -232 516 -134 127
-290 148 -462 64 -87 -43 -169 -120 -206 -193 -15 -29 -33 -89 -42 -134 -20
-106 -44 -150 -116 -218 -87 -80 -103 -114 -102 -230 0 -52 3 -131 8 -175 8
-72 6 -85 -13 -122 -63 -125 -225 -195 -346 -149 -94 36 -171 161 -182 296 -7
81 7 134 54 202 67 99 96 173 96 247 0 117 -64 206 -228 317 -184 124 -318
106 -556 -72 -170 -129 -258 -152 -366 -99 -89 45 -90 48 -38 149 25 49 68
123 95 165 59 93 67 119 46 160 -29 56 -99 74 -147 38 -31 -23 -129 -186 -194
-319 -164 -338 -229 -627 -229 -1008 0 -295 30 -484 121 -755 45 -134 171
-389 248 -505 372 -555 936 -915 1595 -1017 161 -24 500 -24 664 1 112 17 119
17 128 1 15 -26 120 -144 174 -197 157 -150 398 -273 634 -324 119 -26 381
-26 500 0 269 58 482 174 670 365 189 192 299 395 356 661 25 115 25 370 1
492 -34 172 -106 343 -205 492 -72 107 -236 273 -331 332 -1 2 5 56 15 121 25
163 25 502 1 663 -101 658 -461 1223 -1017 1595 -116 77 -371 203 -505 248
-139 47 -281 81 -415 102 -100 15 -446 28 -520 19z m1845 -2724 c39 -6 77 -13
85 -15 10 -3 39 -75 79 -198 l64 -193 -79 -110 -80 -109 -214 0 -214 0 -80
109 -80 109 65 194 c55 167 67 195 86 199 91 23 259 29 368 14z m-635 -118 c0
-4 -15 -53 -33 -107 l-34 -100 -111 -3 c-65 -1 -112 1 -112 7 0 15 110 105
195 160 80 51 95 58 95 43z m1085 -50 c94 -61 185 -137 185 -153 0 -6 -46 -8
-112 -7 l-111 3 -34 100 c-18 54 -33 103 -33 107 0 15 16 7 105 -50z m-3437
-306 c32 -17 130 -117 197 -201 112 -140 212 -170 487 -142 154 16 185 14 206
-11 16 -21 15 -99 -4 -207 -30 -169 -3 -263 109 -382 76 -80 87 -103 87 -182
l0 -58 -87 14 c-216 34 -385 89 -588 188 -241 118 -409 239 -591 426 -89 92
-254 299 -254 317 0 4 30 20 67 37 64 28 136 76 256 170 64 49 75 52 115 31z
m2392 -167 l81 -110 -62 -192 c-33 -106 -64 -195 -68 -199 -4 -4 -65 -26 -137
-49 l-130 -41 -163 118 -163 119 5 60 c8 84 51 225 98 323 l40 82 208 0 209 0
82 -111z m1439 29 c47 -98 90 -239 98 -323 l5 -60 -163 -119 -163 -118 -130
41 c-72 23 -133 45 -137 49 -4 4 -35 93 -68 199 l-62 192 81 110 82 111 209 0
208 0 40 -82z m-747 -398 c32 -96 54 -178 50 -182 -38 -37 -289 -207 -300
-203 -33 12 -293 209 -289 219 2 6 28 83 57 171 28 88 54 163 57 168 2 4 86 6
186 5 l181 -3 58 -175z m-1232 -306 c50 -37 89 -72 87 -78 -2 -6 -19 -56 -37
-111 l-34 -100 -28 63 c-38 84 -97 292 -83 292 3 0 45 -30 95 -66z m2073 34
c-12 -68 -54 -200 -81 -260 l-28 -63 -37 110 c-20 60 -34 112 -29 117 16 15
167 127 174 127 4 1 5 -14 1 -31z m-1348 -177 l160 -118 0 -143 0 -144 -163
-119 -163 -119 -72 35 c-81 41 -220 143 -284 209 l-42 43 62 195 63 195 124
42 c69 22 132 41 140 41 8 1 87 -52 175 -117z m845 76 l124 -42 63 -195 63
-195 -72 -69 c-75 -71 -211 -167 -285 -200 l-41 -18 -164 119 -163 120 -3 141
-3 140 163 121 c90 66 170 120 178 119 8 0 71 -19 140 -41z m-481 -724 c44
-32 81 -61 81 -64 0 -8 -106 -19 -180 -19 -74 0 -180 11 -180 19 1 13 175 131
187 127 7 -3 48 -31 92 -63z"/>
<path d="M713 4468 c-68 -18 -88 -110 -37 -162 61 -60 164 -17 164 70 0 70
-56 110 -127 92z"/>
<path d="M3535 3227 c-17 -14 -28 -36 -32 -63 -4 -36 -1 -46 24 -74 25 -28 36
-33 73 -33 37 0 48 5 73 33 25 28 28 38 24 74 -7 54 -44 86 -97 86 -26 0 -48
-8 -65 -23z"/>
</g>
</svg>
